<svg width="181" height="29" viewBox="0 0 181 29" fill="none" xmlns="http://www.w3.org/2000/svg">
<g clip-path="url(#clip0_1_41)">
<path d="M24.484 24.2917H21.4812V28.4585H24.484V24.2917Z" fill="black"/>
<path d="M165.955 0L158.29 1.28889L159.118 3.70555V26.7686L158.662 28.418H166.755C171.991 25.9027 175.822 20.9102 175.822 13.4045C175.822 5.38514 171.705 0.549792 165.955 0ZM167.614 25.7073H161.95V2.54757L164.066 2.1448C170.56 2.93222 173.192 7.80583 173.192 14.488C173.192 20.6745 170.53 24.2915 167.614 25.7073Z" fill="black"/>
<path d="M180.199 24.2917H177.196V28.4585H180.199V24.2917Z" fill="black"/>
<path d="M9.0099 0.235927C6.83507 1.2187 3.91873 3.8126 2.08687 5.97551C0.76792 8.84328 0 12.0675 0 15.5657C0 23.6212 5.09113 29.4796 10.811 28.9701C12.9857 27.9873 15.9036 25.3935 17.7339 23.1902C19.0529 20.3708 19.878 17.1485 19.878 13.6403C19.878 5.58078 14.7297 -0.2756 9.0099 0.235927ZM12.0992 26.2151C6.4306 26.6501 2.54557 21.0253 2.54557 14.3472C2.54557 8.5694 4.8332 4.52148 7.69385 2.9869C13.3858 2.55593 17.2753 8.1767 17.2753 14.897C17.2753 20.6366 14.9876 24.6845 12.0992 26.2171V26.2151Z" fill="black"/>
<path d="M34.9817 0.904053L35.7248 2.82933L28.4881 28.4177H32.4933L31.321 25.4312L32.8362 19.7319L41.0166 19.5749L43.0478 26.7664L42.6477 28.4177H46.4507L38.5004 0.904053H34.9817ZM33.5807 16.9809L36.6113 5.81794H37.1551L40.2736 16.9809H33.5807Z" fill="black"/>
<path d="M144.847 26.0999V3.06496L145.19 0.904053H141.156L142.015 3.06496V26.3354L141.643 28.4178H151.826L154.4 28.5749V24.9599L151.254 26.0999H144.847Z" fill="black"/>
<path d="M111.868 4.16656L106.605 21.9331H106.203L100.54 3.30058L100.884 0.904053H96.9649L105.547 28.5749H106.376L114.756 0.904053H110.494L111.868 4.16656Z" fill="black"/>
<path d="M125.74 0.235927C123.565 1.2187 120.648 3.8126 118.817 5.97551C117.498 8.84328 116.73 12.0675 116.73 15.5657C116.73 23.6212 121.821 29.4796 127.541 28.9701C129.715 27.9873 132.632 25.3935 134.463 23.1902C135.782 20.3708 136.608 17.1485 136.608 13.6403C136.608 5.58078 131.46 -0.2756 125.74 0.235927ZM128.829 26.2151C123.165 26.6501 119.274 21.0253 119.274 14.3472C119.274 8.5694 121.561 4.52148 124.422 2.9869C130.119 2.55593 134.005 8.1767 134.005 14.897C134.005 20.6366 131.718 24.6845 128.829 26.2171V26.2151Z" fill="black"/>
<path d="M83.6642 26.1V15.9984H89.1275L91.4164 16.7838V13.05L89.1275 13.6784H83.6642V3.2223H90.043L92.9885 4.24536V0.628418L90.6721 0.904321H80.0324L80.862 3.30085V25.6288L80.3754 28.418H91.1582L93.5324 28.5752V24.9602L90.5008 26.1H83.6642Z" fill="black"/>
<path d="M65.4722 0L57.8061 1.28889L58.6356 3.70555V26.7686L58.1783 28.418H66.2723C71.5071 25.9027 75.3393 20.9102 75.3393 13.4045C75.3393 5.38514 71.2213 0.549792 65.4722 0ZM67.2483 25.7073H61.4962V2.54757L63.6124 2.1448C70.1061 2.93222 72.7366 7.80583 72.7366 14.488C72.7366 20.2819 70.0768 24.2915 67.2483 25.7073Z" fill="black"/>
<path d="M53.4874 24.2917H50.4846V28.4585H53.4874V24.2917Z" fill="black"/>
</g>
<defs>
<clipPath id="clip0_1_41">
<rect width="181" height="29" fill="white"/>
</clipPath>
</defs>
</svg>
