<svg width="25" height="26" viewBox="0 0 25 26" fill="none" xmlns="http://www.w3.org/2000/svg">
<g clip-path="url(#clip0_1_24)">
<path d="M23.0769 5.71962H17.7644C17.6391 4.30335 17.0303 2.98842 16.057 2.03151C15.0835 1.07458 13.8153 0.544376 12.4999 0.544376C11.1846 0.544376 9.91639 1.07458 8.94296 2.03151C7.96956 2.98842 7.3608 4.30335 7.23552 5.71962H1.92302C1.5405 5.71962 1.17364 5.88397 0.903155 6.17653C0.63267 6.46908 0.480713 6.86587 0.480713 7.27962V23.9196C0.480713 24.3334 0.63267 24.7302 0.903155 25.0227C1.17364 25.3153 1.5405 25.4796 1.92302 25.4796H23.0769C23.4594 25.4796 23.8263 25.3153 24.0968 25.0227C24.3673 24.7302 24.5192 24.3334 24.5192 23.9196V7.27962C24.5192 6.86587 24.3673 6.46908 24.0968 6.17653C23.8263 5.88397 23.4594 5.71962 23.0769 5.71962ZM12.4999 1.55962C13.564 1.56174 14.5902 1.98667 15.3836 2.75366C16.1769 3.52064 16.682 4.57618 16.8028 5.71962H8.19706C8.3179 4.57618 8.823 3.52064 9.61629 2.75366C10.4097 1.98667 11.4359 1.56174 12.4999 1.55962ZM23.5576 23.9196C23.5576 24.0575 23.507 24.1898 23.4169 24.2873C23.3267 24.3849 23.2044 24.4396 23.0769 24.4396H1.92302C1.79551 24.4396 1.67322 24.3849 1.58307 24.2873C1.49291 24.1898 1.44225 24.0575 1.44225 23.9196V7.27962C1.44225 7.1417 1.49291 7.00944 1.58307 6.91192C1.67322 6.8144 1.79551 6.75962 1.92302 6.75962H23.0769C23.2044 6.75962 23.3267 6.8144 23.4169 6.91192C23.507 7.00944 23.5576 7.1417 23.5576 7.27962V23.9196Z" fill="white"/>
</g>
<defs>
<clipPath id="clip0_1_24">
<rect width="25" height="26" fill="white"/>
</clipPath>
</defs>
</svg>
